<svg xmlns="http://www.w3.org/2000/svg" viewBox="0 0 341 99.23"><title>tailor_fullColor</title><g id="logos"><path d="M164,42.06h-7.29V36.85H177.4v5.21h-7.29V62.94H164Z" style="fill:#00284b"/><path d="M199.45,58.79H188.52l-1.65,4.15h-6.43l10.69-26.11h5.71l10.69,26.11h-6.41Zm-8.84-5.18h6.75l-3.16-7.88-.2-.85h0l-.2.85Z" style="fill:#00284b"/><path d="M215.31,36.85h6.08V62.94h-6.08Z" style="fill:#00284b"/><path d="M231.94,36.85H238V57.72H249v5.22h-17Z" style="fill:#00284b"/><path d="M255.56,49.85a13.31,13.31,0,0,1,1.94-6.91,13.83,13.83,0,0,1,2.23-2.77,14.32,14.32,0,0,1,6.28-3.5,14.88,14.88,0,0,1,3.8-.48A14.75,14.75,0,0,1,277,38a14.88,14.88,0,0,1,2.89,2.13,13.54,13.54,0,0,1,2.24,2.77,13.37,13.37,0,0,1,1.44,10.56,13.67,13.67,0,0,1-1.44,3.27,13.81,13.81,0,0,1-2.24,2.77A14.1,14.1,0,0,1,277,61.67,15.28,15.28,0,0,1,273.59,63a14.3,14.3,0,0,1-3.78.49A14.45,14.45,0,0,1,266,63a14.94,14.94,0,0,1-3.4-1.37,13.77,13.77,0,0,1-2.88-2.13,14.12,14.12,0,0,1-2.23-2.77,13.25,13.25,0,0,1-1.43-3.27A13,13,0,0,1,255.56,49.85Zm6.06,0a8.62,8.62,0,0,0,.64,3.35A8.33,8.33,0,0,0,264,55.89a8,8,0,0,0,2.61,1.78,7.93,7.93,0,0,0,3.18.64,8,8,0,0,0,3.22-.64,7.87,7.87,0,0,0,2.6-1.78,8.31,8.31,0,0,0,1.75-2.67,9.09,9.09,0,0,0,0-6.7,8.31,8.31,0,0,0-1.75-2.67,7.87,7.87,0,0,0-2.6-1.78,8,8,0,0,0-3.22-.64,7.93,7.93,0,0,0-3.18.64A8,8,0,0,0,264,43.85a8.33,8.33,0,0,0-1.76,2.67A8.62,8.62,0,0,0,261.62,49.87Z" style="fill:#00284b"/><path d="M301.73,54.44h-3.87v8.5h-6.09V36.85h11.44a10.71,10.71,0,0,1,3.78.64,9,9,0,0,1,3,1.8,8.11,8.11,0,0,1,2,2.78,9.1,9.1,0,0,1,.7,3.6,9.5,9.5,0,0,1-.35,2.6,8,8,0,0,1-1,2.21,7.62,7.62,0,0,1-1.53,1.77,8.7,8.7,0,0,1-2,1.28l5.5,9.41h-7ZM303,49.22a3.83,3.83,0,0,0,1.4-.26,3.56,3.56,0,0,0,1.14-.72,3.35,3.35,0,0,0,.77-1.11,3.92,3.92,0,0,0,0-2.91,3.48,3.48,0,0,0-.77-1.14,3.59,3.59,0,0,0-2.54-1h-5.1v7.16Z" style="fill:#00284b"/><polygon points="28.82 27.34 51.14 49.66 28.82 71.98 28.82 27.34" style="fill:#fad250"/><polygon points="128.24 71.98 105.92 49.66 128.24 27.34 128.24 71.98" style="fill:#fad250"/><circle cx="78.51" cy="49.72" r="18.81" style="fill:#fad250"/></g></svg>